<?xml version="1.0" encoding="UTF-8"?>
<svg id="Capa_2" data-name="Capa 2" xmlns="http://www.w3.org/2000/svg" viewBox="0 0 51.02 34.06">
  <defs>
    <style>
      .cls-1 {
        fill: #483a82;
        fill-rule: evenodd;
      }
    </style>
  </defs>
  <g id="Capa_1-2" data-name="Capa 1">
    <path class="cls-1" d="M41.12,14.26c-1.22,0-2.41.22-3.54.65l-.59-1.18h1.47s.04,0,.07,0l4.87-.33c.52-.04.92-.47.91-.99l-.13-7.23c0-.28-.13-.54-.34-.73-.18-.15-.4-.23-.64-.23-.04,0-.09,0-.13,0l-6.56.89c-.28.04-.53.19-.68.43-.16.23-.2.52-.13.8l1.48,5.44h-1.17L31.07,1.88c-.59-1.17-1.72-1.88-3.04-1.88h-2.12c-.54,0-.98.44-.98.98s.44.98.98.98h2.12c.57,0,1.03.28,1.29.8l2.69,5.38c-1.25.81-2.42,2.18-3.65,4.28-.4.68-.77,1.34-1.14,2-1.09,1.95-1.96,3.52-3.33,4.94l-7.16-12.56h1.01c.54,0,.98-.44.98-.98s-.44-.98-.98-.98h-5.38c-.54,0-.98.44-.98.98s.44.98.98.98h2.12l2.2,3.87-1.26,2.14c-.96-.71-2.12-1.1-3.31-1.1H4.02c-.54,0-.98.44-.98.98s.44.98.98.98h8.11c.85,0,1.66.3,2.31.85l-.39.67c-1.3-.6-2.7-.91-4.15-.91C4.44,14.26,0,18.7,0,24.16s4.44,9.9,9.9,9.9c5.09,0,9.36-3.89,9.85-8.92h2.56c.43,1.39,1.73,2.38,3.21,2.38.24,0,.48-.03.72-.08l.15.26h-.06c-.54,0-.98.44-.98.98s.44.98.98.98h3.46c.54,0,.98-.44.98-.98s-.44-.98-.98-.98h-1.16l-.69-1.22c.6-.62.93-1.45.93-2.32,0-.74-.24-1.45-.69-2.04.35-.39.69-.82,1-1.28.63-.92,1.22-2.02,1.84-3.19.97-1.83,2.06-3.88,3.29-4.94l1.53,3.07c-2.86,1.81-4.62,4.99-4.62,8.37,0,5.46,4.44,9.9,9.9,9.9s9.9-4.44,9.9-9.9-4.44-9.9-9.9-9.9ZM42.25,6.31l.09,5.2-3.15.22-1.31-4.82,4.37-.59ZM41.12,32.1c-4.38,0-7.95-3.57-7.95-7.95,0-2.64,1.35-5.14,3.55-6.61l3.53,7.05c.17.33.5.54.87.54.15,0,.3-.03.44-.1.48-.24.68-.83.44-1.31l-3.53-7.05c.85-.3,1.75-.46,2.66-.46,4.38,0,7.95,3.56,7.95,7.95s-3.57,7.95-7.95,7.95ZM25.52,22.76c.77,0,1.4.63,1.4,1.4,0,.14-.02.27-.06.4l-.49-.88c-.17-.31-.5-.5-.85-.5-.17,0-.33.04-.48.13-.47.26-.64.86-.37,1.33l.49.88c-.6-.16-1.04-.71-1.04-1.35,0-.77.63-1.4,1.4-1.4ZM26.58,20.98c-.34-.11-.7-.17-1.06-.17-.1,0-.21,0-.31.01,1.6-1.64,2.6-3.42,3.74-5.48.35-.62.71-1.27,1.1-1.94.99-1.68,1.92-2.83,2.85-3.5l.52,1.04c-1.69,1.23-2.93,3.55-4.12,5.81-.59,1.11-1.15,2.17-1.72,2.99-.31.45-.64.87-.99,1.24ZM11.61,23.18l3.13-5.33c1.7,1.3,2.79,3.21,3.05,5.33h-6.18ZM23.08,21.86c-.36.38-.62.83-.77,1.33h-2.56c-.28-2.82-1.72-5.35-4.02-7.02l2.08-3.54,5.27,9.24ZM9.06,23.66c-.18.3-.18.68,0,.98.17.3.5.49.85.49h7.89c-.49,3.94-3.88,6.97-7.89,6.97-4.38,0-7.95-3.57-7.95-7.95s3.57-7.95,7.95-7.95c1.1,0,2.16.22,3.15.65l-4,6.8Z"/>
  </g>
</svg>