<?xml version="1.0" encoding="UTF-8"?>
<svg id="Capa_2" data-name="Capa 2" xmlns="http://www.w3.org/2000/svg" viewBox="0 0 36.85 32.19">
  <defs>
    <style>
      .cls-1 {
        fill: #483a82;
      }
    </style>
  </defs>
  <g id="Capa_1-2" data-name="Capa 1">
    <g>
      <path class="cls-1" d="M6.94.01c-.42,0-.75.34-.75.75v8.42c0,.23-.06,2.26-2.26,2.26s-2.41-2.21-2.43-2.44V.77C1.51.35,1.17.01.75.01s-.75.34-.75.75v8.29s.06.97.55,1.9c.2.38.48.78.88,1.13,0,.02,0,.03,0,.05v18.01c0,1.13.92,2.05,2.05,2.05h.75c1.13,0,2.05-.92,2.05-2.05V12.23c.46-.36.77-.79.97-1.2.45-.9.46-1.8.46-1.84V.77C7.7.35,7.36.01,6.94.01ZM4.77,30.14c0,.3-.24.54-.54.54h-.75c-.3,0-.54-.24-.54-.54V12.84c.3.07.63.11,1,.11.3,0,.58-.03.84-.07v17.27Z"/>
      <path class="cls-1" d="M3.85,9.76c.42,0,.75-.34.75-.75V.75c0-.42-.34-.75-.75-.75s-.75.34-.75.75v8.25c0,.42.34.75.75.75Z"/>
      <path class="cls-1" d="M36.11.69c-.17-.08-.35-.12-.53-.12-.3,0-.59.11-.83.31-1.61,1.39-4.3,4.22-4.3,7.58v6.8c0,.42.34.75.75.75s.75-.34.75-.75v-6.8c0-2.53,1.97-4.79,3.39-6.1v27.63c0,.38-.31.69-.69.69h-.46c-.38,0-.69-.31-.69-.69v-11.61c0-.42-.34-.75-.75-.75s-.75.34-.75.75v11.61c0,1.21.99,2.2,2.2,2.2h.46c1.21,0,2.2-.99,2.2-2.2V1.84c0-.5-.28-.95-.74-1.16Z"/>
      <path class="cls-1" d="M18.72,25.67c5.46,0,9.91-4.44,9.91-9.91s-4.44-9.91-9.91-9.91-9.91,4.44-9.91,9.91,4.44,9.91,9.91,9.91ZM18.72,24.17c-4.63,0-8.4-3.77-8.4-8.4s3.77-8.4,8.4-8.4,8.4,3.77,8.4,8.4-3.77,8.4-8.4,8.4Z"/>
      <path class="cls-1" d="M28.95,24.57c-.21,0-.41.09-.55.24-2.5,2.67-6.03,4.21-9.68,4.21s-7.18-1.53-9.68-4.21c-.14-.15-.34-.24-.55-.24-.19,0-.37.07-.51.2-.15.14-.23.32-.24.52,0,.2.06.39.2.54,1.37,1.46,2.98,2.61,4.8,3.42,1.89.84,3.9,1.26,5.98,1.26s4.09-.42,5.98-1.26c1.82-.81,3.44-1.96,4.8-3.42.14-.15.21-.34.2-.54,0-.2-.09-.39-.24-.52-.14-.13-.32-.2-.51-.2Z"/>
      <path class="cls-1" d="M24.7,2.28c-1.89-.84-3.9-1.26-5.98-1.26s-4.09.42-5.98,1.26c-1.82.81-3.44,1.96-4.8,3.42-.14.15-.21.34-.2.54,0,.2.09.39.24.52.14.13.32.2.51.2.21,0,.41-.09.55-.24,2.5-2.67,6.03-4.21,9.68-4.21s7.18,1.53,9.68,4.21c.14.15.34.24.55.24.19,0,.37-.07.51-.2.15-.14.23-.32.24-.52,0-.2-.06-.39-.2-.54-1.37-1.46-2.98-2.61-4.8-3.42Z"/>
    </g>
  </g>
</svg>