<?xml version="1.0" encoding="UTF-8"?>
<svg id="Capa_2" data-name="Capa 2" xmlns="http://www.w3.org/2000/svg" viewBox="0 0 36.85 36.86">
  <defs>
    <style>
      .cls-1 {
        fill: #483a82;
      }
    </style>
  </defs>
  <g id="Capa_1-2" data-name="Capa 1">
    <g>
      <path class="cls-1" d="M21.23,35.73c-1.68,1.58-4.66,1.48-6.18-.18-1.16-1.27-1.11-2.94-1.21-4.7-2.3,3.01-7.03,3.45-8.84.82s-1.73-6.04-.03-8.72c-1.45-.1-2.85-.26-3.81-1.27-1.59-1.66-1.53-4.46.02-6.13.98-1.06,2.35-1.32,3.83-1.58-1.66-2.58-1.79-5.74-.31-8.35.76-1.34,2.07-2.08,3.6-2.15,2.19-.11,4.11.77,5.53,2.5.12-1.8.11-3.53,1.33-4.77,1.65-1.68,4.55-1.51,6.24.02,1.23,1.48,1.48,3.11,1.61,5.22,1.4-2,3.32-3.03,5.68-2.97,1.63.04,2.98.76,3.78,2.2,1.43,2.58,1.33,5.72-.33,8.27l2.2.7c1.78.57,2.49,2.3,2.51,4.08.03,2.57-1.96,4.37-4.72,4.15,1.59,2.47,1.76,5.42.57,7.93-.82,1.74-2.31,2.65-4.21,2.59-1.53-.04-2.99-.37-4.1-1.48l-1.42-1.41c-.06,1.99-.23,3.82-1.74,5.24ZM19.55,4.33c.53,1.06.44,1.83.35,2.99l1.7.4c.15-2.71,0-5.57-2.32-6.26-1.2-.36-2.66-.18-3.37.9-1,1.51-.76,3.3-.41,5.1l1.44-.31c-.24-1.45-.22-2.87.88-3.23.45-.14,1.48-.07,1.73.42ZM6.1,10.67c-.82-.41-1.17-1.62-.61-2.52,1.15-1.87,3.57-2.72,5.49-1.63.76.43,1.47,1.2,1.94,1.87.08.12.58-.23.56-.39-.66-1.42-2.04-2.77-3.58-3.15-1.72-.43-3.33.05-4.18,1.6-1.24,2.26-.99,5.07.62,7.09.4.5,1.15.94,1.68.82.66-1.39,1.3-2.65,2.4-3.72-1.64-2.99-1.85,1.27-4.32.04ZM27.23,12.82l1.01,1.72c.72-.03,1.82-.26,2.36-.81,2.57-2.65,1.72-7.81-.7-8.71-2.58-.97-5.3.59-6.3,3.05-.13.32-.25.6-.17.78.06.14.55.22.66.19.57-1.75,1.99-2.74,3.56-2.97,1.67-.04,3.39.67,4.05,2.24.45,1.06.09,2.04-.91,2.48-1.71.75-2.2-1.63-3.17-1.27-.87.32-1.34,1.69-.4,3.3ZM18.58,7.17c.08-.82.06-1.45-.06-2.11-.83.6-.62,1.43.06,2.11ZM9.66,8.27c.65.25,1.05.47,1.45.87l.46.46c.08.08.33-.15.52-.31l-2.15-2.02c-1.48.19-3.03.43-3.42,1.72-.05.15.16.66.31.63.66-.12,1.18-1.98,2.83-1.34ZM30.49,9.55c.14-.13.15-.57.04-.77-.66-1.18-2.06-1.66-3.39-1.24-1.01.32-2.13,1.44-1.89,2.83.63-.24.74-2,2.36-2.17,2.01-.22,2.22,1.99,2.88,1.35ZM25.27,25.33c1.57-1.43,2.46-3.53,2.54-5.74.15-4.16-2.19-8.01-5.72-10.08-3.23-1.88-6.85-1.4-9.62.86-2.31,1.89-3.71,4.26-3.8,7.37s1.26,6.33,4.03,8.06c3.69,2.3,9.33,2.49,12.57-.46ZM7.43,19.8c-1.31.34-1.96.45-2.8.02-.6-.3-.93-1.16-.79-1.74.1-.43.8-1.09,1.3-1.11l2.21-.06c.18-.39.33-1.13.22-1.58-1.29-.33-2.5-.19-3.68.11-1.69.42-2.68,1.74-2.57,3.48.08,1.25.81,2.28,2.09,2.56,1.47.32,2.83.29,4.33-.19l-.32-1.48ZM29.1,21.36c3.05.53,6.06.62,6.43-2.2.21-1.57-.48-2.99-2.02-3.51s-3.23-.62-4.97-.2l.3,1.49h2.46c.66,0,1.4.72,1.46,1.31.07.63-.31,1.49-1.03,1.71-.85.25-1.65.06-2.65-.11l.03,1.51ZM7.38,18.4l-1.44-.28c-.22-.04-.7.34-.84.56.9.2,1.68.19,2.28-.28ZM31.55,18.35c-.92-.44-1.75-.38-2.52,0,.68.64,1.98.91,2.52,0ZM5.22,28.07c-.13-.97.5-1.9,1.4-2.05,1.06-.17,1.67.35,2.24,1.31.41.2,1.18-.2,1.32-.57.57-1.48-.8-1.86-1.9-3.99-2.04-.84-3.68,2.84-3.27,5.45l.21-.16ZM24.12,27.86c-1.73-.54.13,3.39,3.14,4.15,1.96.5,3.77-.28,4.47-2.2.82-2.26.59-4.88-1.1-6.7-.41-.44-1.66-.58-2.06-.25l-1.78,2.88c-.12.37.23,1.14.56,1.43.41.35,1.06.22,1.27-.22.46-.93,1.56-1.19,2.43-.78.75.36,1.05,1.45.68,2.34-.66,1.58-2.4,2.32-4.08,2.24-1.51-.2-2.9-1.12-3.52-2.9ZM6.61,28.03c.63,1.2,2.04,1.67,3.31,1.3,1.01-.29,2.26-1.36,1.84-2.71-.63,1.11-1.22,1.86-2.25,2.06-1.59.31-2.7-2.29-2.92-1.3-.02.11-.04.56.02.66ZM27.83,28.7c-.6-.03-1.27-.43-1.64-.94l-.83-1.11c-.25,1.62,1.01,2.46,2.07,2.73,1.27.32,2.67-.35,3.15-1.4.08-.17-.13-.64-.28-.71-.45-.2-.97,1.49-2.47,1.43ZM5.03,28.37c.2,1.03.59,2.26,1.46,3.02.99.86,2.36.89,3.57.56,1.95-.53,3.26-2.12,3.77-3.97l-.48-.35c-.19-.14-1.2,3.21-4.16,3.15-1.77-.03-3.4-.96-3.91-2.64l-.25.23ZM19.8,28.91c.25,1.37.32,2.19-.3,3.22-.2.33-1.1.51-1.5.4-1.37-.35-1.33-1.86-.98-3.57-.16-.38-1.09-.55-1.49-.28-.25,1.37-.4,2.86-.28,4.21.15,1.62,1.4,2.69,2.94,2.68,3.37-.01,3.68-3.55,3.34-6.98l-1.73.32ZM18.45,31.3c.5-.88.39-1.68-.04-2.44-.5.79-.75,1.81.04,2.44Z"/>
      <path class="cls-1" d="M21.19,24.78c-2.79.96-6.03.34-8.13-1.72-3.27-3.21-2.45-8.5,1.22-11.04,2.57-1.77,5.68-1.65,8.11.36,2.1,1.74,3.33,4.45,3.04,7.21-.26,2.44-1.82,4.35-4.23,5.18ZM20.32,23.7c2.34-.54,3.84-2.46,3.86-4.8.03-3.52-3.08-6.94-6.01-6.86-3.32.09-6.05,3.12-5.86,6.38.23,3.98,4.08,6.19,8.01,5.28Z"/>
      <path class="cls-1" d="M18.09,9.05c.28-.11.74.22.75.46,0,.27-.14.78-.37.82-.24.05-.75-.06-.86-.27-.12-.25.15-.88.47-1.01Z"/>
      <path class="cls-1" d="M24.62,12.65c.22-.04.64.28.68.48.04.24-.25.74-.49.79s-.73-.25-.78-.49.28-.73.6-.79Z"/>
      <path class="cls-1" d="M11.12,12.44c.23-.06.72,0,.84.14.15.18.03.69-.16.82s-.68.13-.83-.05-.07-.85.15-.91Z"/>
      <path class="cls-1" d="M24.58,23.7c.14-.03.5.14.6.24.12.13-.01.47-.16.56-.15.1-.53.07-.63-.07s.02-.71.19-.74Z"/>
      <path class="cls-1" d="M9.52,18.67c.07-.1.53-.21.65-.16.15.06.18.52.03.6l-.44.24c-.14.08-.34-.53-.24-.67Z"/>
      <path class="cls-1" d="M18.03,26.09c.09-.08.6-.08.59.03l-.09.67c-.02.16-.53-.02-.62-.15s0-.44.12-.55Z"/>
      <path class="cls-1" d="M11.64,23.18c.31-.02.54-.02.56.09.04.19.02.52-.13.53l-.5.03c-.15,0-.07-.64.08-.65Z"/>
      <path class="cls-1" d="M26.5,18.62c.18-.03.49-.02.54.09.06.14.04.51-.11.52l-.51.05c-.15.01-.06-.63.08-.65Z"/>
      <path class="cls-1" d="M22.8,20.45c-.83,1.95-2.94,2.63-4.81,2.48-2.04-.16-3.69-1.27-4.38-2.96-.79-1.95-.28-4.04,1.16-5.48,1.6-1.61,3.91-2.05,5.85-.75,2.12,1.43,3.25,4.21,2.18,6.71ZM19.11,14.33c-1.01-.05-1.45-.02-2.44.21l1.32.94,1.12-1.15ZM18.29,18.54c.8.5.54,1.8,1.8,2.46.18.09.69.05.8-.12.45-.73-.37-1.97-1.74-2.49-.17-.07-.54-.41-.49-.56.22-.68,2.11-.73,2.12-2.06,0-.34-.79-.57-1.03-.42-.2.13-.52.46-.62.7l-.59,1.37c-.06.15-.66.16-.73.03l-.31-.58c-.47-.88-1.34-1.81-2.26-1.08.13,1.57,2.3,1.34,2.2,2.03-.11.78-2.12,1.14-1.78,2.8,1.82.48,1.98-2.46,2.62-2.06ZM21.81,19.6c.32-1.11.11-1.97-.3-2.74l-.91,1.14,1.21,1.6ZM15.62,17.94l-1.04-.75c-.43.7-.49,1.54.1,2.15l.93-1.4ZM19.09,21.58c-.41-.51-.75-.86-.98-.81s-.57.34-.95.66c.61.24,1.25.29,1.92.15Z"/>
    </g>
  </g>
</svg>