<?xml version="1.0" encoding="UTF-8"?>
<svg id="Capa_2" data-name="Capa 2" xmlns="http://www.w3.org/2000/svg" viewBox="0 0 29.74 36.85">
  <defs>
    <style>
      .cls-1 {
        fill: #483a82;
      }
    </style>
  </defs>
  <g id="Capa_1-2" data-name="Capa 1">
    <path class="cls-1" d="M28.94,18.15c-1.02,0-2.08-1.02-2.9-2.81-.92-2.01-1.43-4.69-1.43-7.56,0-2.44.38-4.82,1.08-6.71.09-.24.05-.52-.09-.73-.15-.21-.39-.34-.65-.34h-4.53c-.21,0-.42.09-.57.24-.15.15-.23.36-.23.57v.15c0,3.21-3.43,6.04-4.75,7.01-1.32-.97-4.76-3.79-4.76-7.01v-.15c0-.21-.08-.42-.23-.57-.15-.15-.36-.24-.57-.24h-4.53c-.26,0-.5.13-.65.34-.15.21-.18.49-.09.73.7,1.89,1.08,4.27,1.08,6.71,0,2.87-.51,5.55-1.43,7.56-.82,1.78-1.88,2.81-2.9,2.81-.44,0-.8.36-.8.8v16.43c0,.81.66,1.47,1.47,1.47h26.79c.81,0,1.47-.66,1.47-1.47v-16.43c0-.44-.36-.8-.8-.8ZM1.59,31.59h12.52v3.66H1.59v-3.66ZM8.56,1.59c.19,1.82,1.21,3.74,2.96,5.56,1.05,1.09,2.09,1.87,2.6,2.23v14.71H1.59v-4.46c2.98-.76,5.12-5.67,5.12-11.86,0-2.21-.28-4.34-.82-6.19h2.66ZM23.85,1.59c-.54,1.85-.82,3.98-.82,6.19,0,6.19,2.14,11.1,5.12,11.86v4.46h-12.52v-14.71c.51-.36,1.55-1.14,2.6-2.23,1.75-1.82,2.77-3.74,2.96-5.56h2.66ZM14.12,26.77v2.15H1.59v-2.15h12.52ZM15.63,28.92v-2.15h12.52v2.15h-12.52ZM15.63,31.59h12.52v3.66h-12.52v-3.66Z"/>
  </g>
</svg>