<?xml version="1.0" encoding="UTF-8"?>
<svg id="Capa_2" data-name="Capa 2" xmlns="http://www.w3.org/2000/svg" viewBox="0 0 32.65 36.85">
  <defs>
    <style>
      .cls-1 {
        fill: #483a82;
      }
    </style>
  </defs>
  <g id="Capa_1-2" data-name="Capa 1">
    <g>
      <path class="cls-1" d="M7.84,34.93H1.92V1.92h20.07v21.75c0,.62.49.95.96.95s.95-.33.96-.95V1.61c0-.89-.72-1.61-1.61-1.61H1.61C.72,0,0,.72,0,1.61v33.63c0,.89.72,1.61,1.61,1.61h6.23c.62,0,.95-.49.95-.96,0-.47-.33-.95-.95-.96Z"/>
      <path class="cls-1" d="M12.35,9.23c-.82.31-1.35,1.08-1.36,1.96l-4.69,2.74c-.38.22-.55.64-.44,1.06.12.44.5.74.92.74.17,0,.33-.05.49-.14l4.69-2.74,4.69,2.74c.15.09.31.13.48.13.34,0,.66-.18.83-.48.27-.46.11-1.05-.35-1.32l-4.7-2.74v-.04s.04-.09.12-.12c1.37-.53,2.14-1.95,1.83-3.39-.33-1.4-1.46-2.3-2.89-2.3s-2.99,1.01-3.01,2.94c0,.62.49.95.96.95s.96-.33.96-.96c0-.25.1-.5.29-.7.21-.21.49-.33.77-.33.08,0,.15,0,.24.03.56.12.78.56.81.93.03.39-.16.87-.65,1.04Z"/>
      <path class="cls-1" d="M29.74,25.29H12.28c-1.6,0-2.9,1.3-2.9,2.9v6.98c0,.89.72,1.61,1.61,1.61h1.29c.89,0,1.61-.72,1.61-1.61v-2.73h14.24v2.73c0,.89.72,1.61,1.61,1.61h1.29c.89,0,1.61-.72,1.61-1.61v-6.98c0-1.6-1.3-2.9-2.9-2.9ZM11.3,28.2c0-.54.44-.98.98-.98h17.46c.54,0,.98.44.98.98v2.32H11.3v-2.32ZM11.97,32.44v2.42h-.66v-2.42h.66ZM30.72,32.44v2.42h-.66v-2.42h.66Z"/>
    </g>
  </g>
</svg>