<?xml version="1.0" encoding="UTF-8"?>
<svg id="Capa_2" data-name="Capa 2" xmlns="http://www.w3.org/2000/svg" viewBox="0 0 36.85 31.73">
  <defs>
    <style>
      .cls-1 {
        fill: #483a82;
      }
    </style>
  </defs>
  <g id="Capa_1-2" data-name="Capa 1">
    <g>
      <path class="cls-1" d="M17.7,27.19l-4.75-.03,1.05,1.26c-2,.32-3.74.31-5.79.21.38,1.12,1.28,1.67,2.2,2.53-2.2.67-9.9.43-10.2.22-.14-.1-.21-.48-.21-.71l.11-5.46c.03-1.65-.07-3.22.53-4.82s.85-3.09.85-4.74c0-3.84,2.72-4.34,3.5-7.38s3.02-4.88,6.01-5.31c1.68-.24,3.2-.66,4.73-1.43,4.28-2.16,9.32-2.06,13.53.29,3.41,1.9,5.93,5.24,6.42,9.03,0,0,.1,4.52.31,5.74.25,1.08.8,2.17.8,3.31l.06,11.66c-2.36.27-5.3.15-7.84-.17l1.47-1.75c-2.85.13-5.39.15-8.15-.32.72-.87,1.37-1.28,1.45-2.23l-6.08.07ZM19.86,3.53c-1.7.76-3.23,1.12-4.16,2.73,2.36-.86,4.73-.96,6.9.06l.36-.28c.06-.04.25.14.32.19,1.23,1.32,1.92,3.07,1.91,4.91l.33,1.77c.42-1.1,0-2.07-.03-3.12s-.1-1.94-.79-2.98c1.13.37,1.19,1.45,1.47,2.51.92-2.08-1.26-3.42-3.08-4.69,1.84.15,3.37,1.4,4.2,3,1.98,3.8,4.4,3.38,5.61,7.01,0,0,.7,3.04.62,5.84l.61-1.36c.2.87.05,1.77-.36,2.52-2.02,3.68-.78,6.06-2.74,8.98,2.28-.73,3.47-2.8,3.88-5.02l.32-1.72c-1.21,1.03-.85,3.15-2.23,4.15.34-1.41.46-2.82.9-4.16.41-1.24,1.02-2.32,1.08-3.66.09-2-.09-3.87-.32-5.88,0,0-.22-1.63-.21-2.4-.36-2.19-1.27-3.88-3.01-5.11s-1.67-4.25-6.53-4.96c1.47.81,3.11,1.54,3.96,3.05.68,1.21,1.45,2.11,2.51,3.01,1.43,1.22,2.05,3.28,1.99,5.15l-.42-1.03c-.56-1-.84-2.19-1.75-2.96s-1.9-1.34-2.61-2.26-1.19-2.07-2.26-2.65c-3.52-1.9-9.45-2.52-12.52-.38-1.09.76-2.2,1.03-3.45,1.49-1.31.49-2.06,2.14-2.37,3.44-.44,1.86-1.28,3.13-2.62,4.45-1.24,1.23-1.28,3.05-1.6,4.81-.21-.27-.3-.75-.42-1.31-.53,1.08-.34,2.27.21,3.37,1.22,2.41.32,4.39,1.62,6.05l.06-1.26c1.43,1.72,0,4.72,2.86,5.62-.57-.99-1.13-1.9-1.17-2.94-.06-1.43-.85-2.31-1.4-3.57-1.31-2.98-1.08-6.81.54-9.6l2.9-3.17c.74-1.27,1.48-2.33,2.56-3.34.62-.58.83-1.54,1.83-1.84l-.95,1.73c-.33.6-.55,1.35-.28,2.03.36-.7.28-1.34.96-1.77l-.5,2.4c-.15.73-.17,1.45.08,2.14.21-1.41.29-2.59.97-3.79.33-3.04,3.11-5.38,6.21-5.19ZM9.02,20.51c-.32,1.59-.85,3.32.3,4.71.29-1.87.01-3.62.88-5.16.2-.36.73-.7.81-1.18.47-2.71,3.14-3.33,4.03-5.98,1.34-2.79,4.18-4.62,7.27-4.29l.26.14s.05.08,0,.1l-.25.11c-2,.21-4.01.81-5.24,2.55,1.53-.35,2.86-.54,4.29-.05l-.27-.76c2.19.77,2.16,3.91,2.71,6.11.52-1.57.13-3.1-.28-4.68.64.35.8.93,1.02,1.62.07.23.44.18.38-.06-.32-1.38-.56-2.59-.76-3.88s-.85-2.26-2.07-2.72c-2.41-1.02-5.16-.67-7.3.86-.86,1.79-1.32,3.56-1.62,5.51-.16.3-.43.7-.67.73-.26.03-.61-.38-.66-.69l-.5-3.17c-.02-.14-.31-.56-.4-.46l-.34.37c-.64.7-.89,1.86-1.66,2.45-2.81,2.12-3.46,4.41-3.23,8.03.62-.73.86-1.58,1.04-2.48.27-1.4,1.26-2.24,2.14-3.32.53-.64.61-1.6,1.11-2.37.22,1.5-.37,2.86-1.32,3.91-.79.87-.8,1.94-1,3.05-.19,1.05-.82,2.1-.09,3.16.26-1.07.6-2.05.78-3.05.46-2.59,1.33-2.79,2.53-4.94.13.47-.11,1.32-.43,1.69-1.07,1.26-1.15,2.54-1.48,4.15ZM3.44,13.6l.88-1.08c1.16-.78,1.96-1.81,2.33-3.15l.63-2.26c-1.12,1.26-1.02,3.04-2.47,4.3-.65.62-1.24,1.27-1.38,2.19ZM32.27,16.15c-.02-.19-.34-1.29-.34-1.29-.33-.81-.67-1.91-1.56-2.42l.52,2.95c.35.11.35.65.46.91l.34.27c.07.05-.14.37-.21.32-1.87-1.38-1.37-5.05-4.37-7.25l-.83,4.13,2.84,2.41c.17.77.71,1.37,1.4,1.75,1.26,2.32.85,4.46,1.06,6.89,1.41-3.12.98-5.41.7-8.67ZM27.53,18.78s-.02-.37.02-.49.25-.41.37-.36c0,0,.96.3,1.17.69l-.07.4.22,2.18c.11,1.03.4,1.97.34,3.02-.04.7-.03,1.34.29,2.11,1.02-3.03,1.16-7.75-1.46-9.64-1.59-1.15-2.46-2.43-3.19-1.88-.17.13-.27.49-.33.8l-.52,2.87c-.03.17-.36.49-.5.43s-.43-.35-.47-.53l-.91-4.44c-.18-.87-.73-1.41-1.55-1.68-1.58-.52-3.22-.23-4.6.84-1.08.84-1.96,2.28-2.02,3.84-.14.58-.3,1.16-.5,1.67-.85-.28-.61-.91-.93-1.56-1.17,1.41-1.62,3.16-1.5,4.88.45,1.3.6,2.53.68,3.98.5.19.95-.21,1.29-.67.73-1.87.62-5.06,1.43-5.06.24,0,.51.27.55.54.13.87.37,1.66.45,2.54.12,1.34.59,2.68,2.24,2.9,1.8.24,3.85.1,5.79.04.15-1.49.5-3.25.73-4.13s.96-.3,1.01.1l.41,3.31c.02.19.23.57.37.72.75-1.3.39-2.58.51-4,.1-1.14.49-2.31.67-3.4ZM28.49,26.05l-.42.52c-.05.06-.28.06-.27-.02l.08-.49c.13-.8.45-1.89.19-2.84-.03-.1-.05-.43.04-.47l.43-.21-.33-2.7c-1.41,3.29.74,6.37-2.94,8.93,1.13.14,1.61-.65,2.32-1.48.05.39-.05.8-.19,1.31.86-.54,1.25-1.64,1.09-2.56ZM6.2,30.26c-.57-.62-.99-1.26-1.34-2.01-2.49-1.73-1.11-4.23-1.75-5.52l-1.24-2.47c-.28,1.74,1.02,3.14.77,5.1-.19,1.5.41,2.63,1.64,3.47.28.83.96,1.53,1.92,1.43ZM10.6,27.54c-.12-.71-.17-1.15.06-1.51.46.77.4,1.65,1.52,1.67-1.07-1.16-.78-2.45-1.09-3.72l-.6-2.49c-.24,1.1.38,2.05.24,3.33l-.44-.56-.12,1.74c-.04.58-.21,1.22.44,1.55ZM14.92,25.43c.44.6.77.96,1.4.86-1.71-1.48-.95-3.05-1.54-4.24-.03.77.13,1.57.09,2.29l-.03.46c0,.06-.18-.02-.22-.06l-.28-.28c-.09.57-.09,1.11.23,1.77l.35-.8ZM25.39,26.99c-.24.04-.46.09-.43.02.02-.05.08-.28.08-.36v-2.87c-.52,1.32.08,2.78-.83,4.64.71-.16,1.16-.77,1.18-1.43Z"/>
      <path class="cls-1" d="M29.52,15.43c-.64-.31-.81-.93-1.19-1.5l-.93-1.37c1.35.35,1.75,1.63,2.12,2.87Z"/>
    </g>
  </g>
</svg>