<?xml version="1.0" encoding="UTF-8"?>
<svg id="Capa_2" data-name="Capa 2" xmlns="http://www.w3.org/2000/svg" viewBox="0 0 51.02 24.86">
  <defs>
    <style>
      .cls-1 {
        fill: #483a82;
      }
    </style>
  </defs>
  <g id="Capa_1-2" data-name="Capa 1">
    <path class="cls-1" d="M38.43,21.36c-4.1,3.2-4.2,3.36-9.55,3.46-3.62.06-7.18.06-10.79-.2-1.29-.09-2.48-.47-3.48-1.24,0,0,0,0,0,0l-.87-.56s0,0-.01,0c-.93-.74-1.82-1.47-2.84-2.1-.01,0-.03-.01-.05-.02-1.08-.23-2.1-.5-3.09-.91,0,0-.01,0-.02-.01-1.09-.66-1.39-2.01-2.81-2.73-1.34-.67-2.61-1.39-3.79-2.31-.56-.45-.88-.96-.78-1.71.17-1.24-.44-2.11-.33-3.26,0,0,0-.02,0-.03.24-.88.62-1.68,1.25-2.33.02-.02.04-.03.07-.04,1.08-.27,1.87-.9,2.4-1.86.79-1.47,1.68-1.14,3.1-1.49.03,0,.06-.03.08-.06.63-.91,1.6-1.34,2.68-1.49,0,0,0,0,0,0l2.9-.64s.01,0,.02,0l2.46-.19c.73-.06,1.32-.38,1.62-1.04.02-.04.05-.06.08-.08.85-.29,1.69-.32,2.57-.37,2.73-.18,5.77.42,7.53.17s3.55-.49,5.32-.03c.61.16,1.22.24,1.71.61.04.03.08.04.12.03.47-.12.87-.14,1.34-.08.69.09,1.5-.02,2.12.33.69.38,1.3.71,2.1.79,0,0,0,0,0,0l1.85.34,1.82.35c1.18.23.9,1.23,2.45,1.5,0,0,0,0,0,0,.44.11.89.21,1.25.45.02.01.03.03.04.05.44.74.87,1.48,1.64,1.86.37.18.99.18,1.18.62l1.05,2.39c.37.85.15,2.66-.02,3.75-.1.64-.44,1.07-.91,1.47-1.25,1.04-2.64,1.73-4.14,2.3-.67.26-1.08.71-1.36,1.33l-.38.84s-.05.07-.09.08c-.8.22-1.51.73-2.32.86-1.2.19-2.21.48-3.18,1.24ZM20.97,6.63c.51-.33,1.03-.6,1.58-.83.01,0,.03,0,.04,0,.51-.04,1.01-.04,1.5.04.03,0,.05.02.07.03l2.02,1.83s.04.06.04.09l.47,7.41c.01.16.25.17.27.01l1.04-7.06c.01-.09.1-.14.18-.11l.76.27s.09,0,.12-.01c.44-.29.73-.68,1.05-1.15.07-.1.22-.07.25.05.22,1.19.47,2.31.79,3.47,0,.01,0,.02,0,.04l-.02,4.52c0,.17.24.19.27.02l.58-3.45s.02-.05.03-.07l1.41-1.51s.03-.05.04-.08l.17-2.3s.02-.07.05-.1l1.72-1.35c.1-.08.24,0,.22.13l-1.51,8.63c-.03.16.21.23.26.07l2.93-8.05c.04-.12.21-.12.25,0l.42,1.06c.07.18-.05.55-.08.78,0,.03,0,.06.02.09l.86,1.4s.02.07.02.1l-1.63,6.6c-.04.16.19.24.26.09l4.61-9.9c.07-.15.3-.07.26.09l-1.16,4.33c-.04.17.2.24.26.08l.29-.77s.02-.04.04-.06l.72-.55s.09-.04.13-.02l1.48.53c.13.05.22.36.29.53.01.03.01.07,0,.1l-1.23,3.14c-.06.15.15.26.24.12l2.92-4.52c.08-.12.26-.06.25.08l-.09,1.14c-.04.55-.02,1.12.03,1.66,0,.06.05.11.11.12l.55.09c.08.01.13.1.11.18l-.33.97c-.04.12.09.22.2.16.84-.48,1.58-1.01,2.25-1.68.02-.02.03-.04.04-.06.22-.69.29-1.4.3-2.13,0-.02,0-.04,0-.05l-.93-2.34c-.39-.99-1.83-.63-2.59-2.17-.64-1.29-2.29-.79-2.95-1.79-.32-.49-.64-.61-1.21-.72l-2.82-.57s0,0,0,0c-.96-.12-1.83-.33-2.58-.93-.03-.02-.06-.03-.09-.03-.38.02-.74-.14-1.06-.13l-1.68.03c-.06,0-.12.05-.13.11-.18.91-.34,1.79-.53,2.66-.03.17-.28.13-.27-.04l.23-2.8c0-.05-.02-.1-.07-.13-.32-.19-.66-.3-1.04-.34,0,0-.01,0-.02,0-1.64-.41-3.28-.32-4.94-.05-.98.16-1.94.1-2.93.01-1.84-.15-3.62-.22-5.46-.09-.47.03-.93.11-1.32.33-.04.02-.07.07-.07.12v.19c0,.07-.1.09-.13.03h0s-.08-.05-.11-.01c-.69.87-1.99.81-3.2.85-1.31.04-2.43.54-3.8.74-.75.11-1.37.42-1.9.96-.03.03-.05.08-.04.13l.1.44c.04.17-.2.24-.26.08h0c-.02-.06-.08-.09-.14-.09-.76.1-1.58.1-2.31.45s-1.05,2.21-2.87,2.65c-.38.09-.49.36-.67.68-.22.38-.67.78-.56,1.3.15.73.29,1.43.24,2.18-.02.32.15.74.4.94,1.04.85,2.17,1.53,3.38,2.12.53.26,1.02.6,1.47.99.05.04.13,0,.11-.07-.19-.56-.35-1.06-.43-1.66,0-.05.02-.11.07-.13l.28-.17c.08-.05.09-.15.03-.21-.44-.44-.86-.9-1.26-1.41-.02-.03-.03-.07-.02-.11l.15-.65s0-.05,0-.08c-.19-.5-.37-.97-.49-1.48-.04-.15.17-.23.25-.1l3.56,5.65c.09.14.3.03.24-.12l-2.01-5.62c-.04-.12.08-.22.19-.17.54.28,1.04.41,1.64.4.06,0,.11.03.13.08l3.2,7.69c.06.16.3.08.26-.09l-1.66-6.62-.13-.52-.82-3.29c-.04-.16.18-.24.25-.1.18.32.35.65.53,1,.03.06.11.09.17.06.48-.19,1.01-.16,1.5-.08.03,0,.05.02.07.03.46.4.85.76,1.26,1.18.02.02.03.04.03.06l1.61,5.58c.05.16.28.12.27-.05l-.57-7.77c0-.05.02-.1.06-.13l.63-.4c.06-.04.15-.02.19.04l.82,1.28c.08.12.27.05.25-.09-.07-.51-.15-.99-.25-1.51,0-.02,0-.04,0-.06l.41-1.36c.04-.14.24-.13.26.01l2.29,11.07c.03.17.28.13.27-.04l-.86-10.57.06-.04.41,2.22c.02.1.14.15.22.08.21-.16.35-.37.45-.62l.44-1.08s.03-.05.05-.06Z"/>
  </g>
</svg>