<?xml version="1.0" encoding="UTF-8"?>
<svg id="Capa_2" data-name="Capa 2" xmlns="http://www.w3.org/2000/svg" viewBox="0 0 45.35 25.4">
  <defs>
    <style>
      .cls-1 {
        fill: #483a82;
      }
    </style>
  </defs>
  <g id="Capa_1-2" data-name="Capa 1">
    <g>
      <path class="cls-1" d="M10.85,24.72v.5H0v-.5c2.38-.5,3.35-1.37,3.53-4.29V4.79C3.35,1.87,2.38,1.01,0,.5v-.5h10.85v.5c-2.34.5-3.35,1.37-3.53,4.29v15.64c.18,2.92,1.19,3.78,3.53,4.29ZM23.21,24.65c-1.19.43-2.52.76-3.75.76-2.74,0-5.12-1.59-5.12-6.85,0-2.59-1.23-4.86-3.42-4.86-.29,0-.5.04-.76.07-.72.22-1.44.36-2.16.43v-.5c2.88,0,5.98-4.25,6.92-10.02-.04-1.84-1.23-2.77-3.17-3.17v-.5h10.7v.5c-2.52.54-3.24,1.41-4.14,4.65-1.08,3.93-3.28,6.34-5.8,7.68,3.14-.14,5.8,1.87,5.8,5.91s1.66,5.59,3.64,5.59c.32,0,.72-.04,1.12-.14l.14.47Z"/>
      <path class="cls-1" d="M45.35,25.26h-10.85v-.5c1.48-.32,2.31-.97,2.31-2.09,0-.83-.5-1.91-1.44-3.32l-3.75-5.62-4.29,5.66c-1.08,1.44-1.66,2.77-1.66,3.68s.54,1.44,1.84,1.69v.5h-7.42v-.5c2.31-.47,3.86-2.38,5.44-4.47l5.55-7.39-4.94-7.46c-2.05-2.99-3.39-4.4-5.91-4.94V.04h11.53v.5c-1.48.32-2.27.97-2.27,2.09,0,.68.29,1.59.94,2.59l3.24,5.04,3.28-5.04c.76-1.19,1.05-2.27,1.05-2.95,0-.94-.54-1.51-1.84-1.77v-.5l7.53.04v.5c-2.41.5-3.78,1.8-5.59,4.58l-3.93,6.02,5.55,8.22c2.23,3.32,2.95,4.86,5.62,5.41"/>
    </g>
  </g>
</svg>